<svg width="21" height="22" viewBox="0 0 21 22" fill="none" xmlns="http://www.w3.org/2000/svg">
<path d="M12.1154 2.11538C12.1154 1.22187 11.3935 0.5 10.5 0.5C9.60649 0.5 8.88461 1.22187 8.88461 2.11538V9.38461H1.61538C0.721875 9.38461 0 10.1065 0 11C0 11.8935 0.721875 12.6154 1.61538 12.6154H8.88461V19.8846C8.88461 20.7781 9.60649 21.5 10.5 21.5C11.3935 21.5 12.1154 20.7781 12.1154 19.8846V12.6154H19.3846C20.2781 12.6154 21 11.8935 21 11C21 10.1065 20.2781 9.38461 19.3846 9.38461H12.1154V2.11538Z" fill="white"/>
</svg>
