<svg width="18" height="18" viewBox="0 0 18 18" fill="none" xmlns="http://www.w3.org/2000/svg">
<path fill-rule="evenodd" clip-rule="evenodd" d="M11.385 12.4459C10.0372 13.5229 8.32814 14.0428 6.60891 13.899C4.88969 13.7552 3.29078 12.9585 2.14058 11.6727C0.990376 10.3868 0.376198 8.70931 0.424184 6.98474C0.47217 5.26018 1.17868 3.61944 2.3986 2.39952C3.61853 1.17959 5.25926 0.473086 6.98383 0.425099C8.70839 0.377113 10.3859 0.991291 11.6717 2.14149C12.9576 3.29169 13.7543 4.8906 13.8981 6.60983C14.0419 8.32906 13.5219 10.0381 12.445 11.3859L17.601 16.5409C17.6747 16.6096 17.7338 16.6924 17.7748 16.7844C17.8158 16.8764 17.8378 16.9757 17.8396 17.0764C17.8414 17.1771 17.8229 17.2772 17.7851 17.3705C17.7474 17.4639 17.6913 17.5488 17.6201 17.62C17.5488 17.6912 17.464 17.7473 17.3706 17.7851C17.2772 17.8228 17.1772 17.8413 17.0765 17.8395C16.9758 17.8378 16.8765 17.8157 16.7845 17.7747C16.6925 17.7337 16.6097 17.6746 16.541 17.6009L11.385 12.4459ZM3.45903 10.8839C2.72507 10.1499 2.22518 9.21477 2.02254 8.19671C1.8199 7.17866 1.9236 6.12338 2.32054 5.16424C2.71748 4.20511 3.38984 3.38516 4.25264 2.80804C5.11544 2.23092 6.12997 1.92252 7.168 1.92183C8.20602 1.92113 9.22096 2.22816 10.0845 2.80412C10.9481 3.38008 11.6216 4.19911 12.0198 5.15771C12.418 6.11632 12.5232 7.17145 12.3219 8.18978C12.1206 9.20811 11.622 10.1439 10.889 10.8789L10.884 10.8839L10.879 10.8879C9.89412 11.8706 8.55945 12.4221 7.1682 12.4213C5.77694 12.4206 4.44287 11.8676 3.45903 10.8839Z" fill="#897975"/>
</svg>
